<svg xmlns="http://www.w3.org/2000/svg" width="360" height="1143" viewBox="0 0 360 1143" role="img" aria-labelledby="crl-axtlr9-title crl-axtlr9-desc" data-crl-visual="v1" data-evidence-kind="exact"><title id="crl-axtlr9-title">状态不是所有量的统称</title><desc id="crl-axtlr9-desc">同一时刻的世界、观测、历史、递归记忆、真预测答案、学习参数和动量分别展示。手机版按对象竖排，不表示它们依次更新。</desc><rect width="360" height="1143" fill="#ffffff"/><g font-family="system-ui,-apple-system,&quot;PingFang SC&quot;,&quot;Noto Sans CJK SC&quot;,sans-serif"><text x="20" y="34" font-size="21" fill="#19354e" text-anchor="start" font-weight="400" opacity="1">状态不是所有量的统称</text><text x="20" y="69" font-size="17" fill="#52687b" text-anchor="start" font-weight="400" opacity="1">同一时刻的七种对象</text><path d="M20 97L340 97" fill="none" stroke="#c8d6e0" stroke-width="2" stroke-linecap="round" opacity="1"/><text x="20" y="128" font-size="20" fill="#19354e" text-anchor="start" font-weight="400" opacity="1">世界 X</text><path d="M20 257L340 257" fill="none" stroke="#c8d6e0" stroke-width="2" stroke-linecap="round" opacity="1"/><text x="20" y="288" font-size="20" fill="#19354e" text-anchor="start" font-weight="400" opacity="1">观测 O</text><path d="M20 407L340 407" fill="none" stroke="#c8d6e0" stroke-width="2" stroke-linecap="round" opacity="1"/><text x="20" y="438" font-size="20" fill="#19354e" text-anchor="start" font-weight="400" opacity="1">历史 H</text><path d="M20 555L340 555" fill="none" stroke="#c8d6e0" stroke-width="2" stroke-linecap="round" opacity="1"/><text x="20" y="586" font-size="20" fill="#19354e" text-anchor="start" font-weight="400" opacity="1">记忆 h</text><path d="M20 698L340 698" fill="none" stroke="#c8d6e0" stroke-width="2" stroke-linecap="round" opacity="1"/><text x="20" y="729" font-size="20" fill="#19354e" text-anchor="start" font-weight="400" opacity="1">真答案 v</text><path d="M20 858L340 858" fill="none" stroke="#c8d6e0" stroke-width="2" stroke-linecap="round" opacity="1"/><text x="20" y="889" font-size="20" fill="#19354e" text-anchor="start" font-weight="400" opacity="1">答案参数 w</text><path d="M20 995L340 995" fill="none" stroke="#c8d6e0" stroke-width="2" stroke-linecap="round" opacity="1"/><text x="20" y="1026" font-size="20" fill="#19354e" text-anchor="start" font-weight="400" opacity="1">更新器 m</text><g data-pattern="gridworld"><rect x="201" y="109" width="35" height="35" rx="0" fill="#ffffff" stroke="#c8d6e0" stroke-width="1.5" opacity="1"/><rect x="206" y="114" width="25" height="25" rx="0" fill="none" stroke="#19354e" stroke-width="2" opacity="1"/><rect x="236" y="109" width="35" height="35" rx="0" fill="#ffffff" stroke="#c8d6e0" stroke-width="1.5" opacity="1"/><rect x="271" y="109" width="35" height="35" rx="0" fill="#ffffff" stroke="#c8d6e0" stroke-width="1.5" opacity="1"/><rect x="276" y="114" width="25" height="25" rx="0" fill="none" stroke="#19354e" stroke-width="2" opacity="1"/><rect x="201" y="144" width="35" height="35" rx="0" fill="#19354e" stroke="#c8d6e0" stroke-width="1.5" opacity="1"/><rect x="236" y="144" width="35" height="35" rx="0" fill="#ffffff" stroke="#c8d6e0" stroke-width="1.5" opacity="1"/><rect x="271" y="144" width="35" height="35" rx="0" fill="#19354e" stroke="#c8d6e0" stroke-width="1.5" opacity="1"/><rect x="201" y="179" width="35" height="35" rx="0" fill="#19354e" stroke="#c8d6e0" stroke-width="1.5" opacity="1"/><rect x="236" y="179" width="35" height="35" rx="0" fill="#ffffff" stroke="#c8d6e0" stroke-width="1.5" opacity="1"/><rect x="271" y="179" width="35" height="35" rx="0" fill="#19354e" stroke="#c8d6e0" stroke-width="1.5" opacity="1"/><circle cx="253.5" cy="126.5" r="8.4" fill="#146ca1" stroke="#ffffff" stroke-width="2.5" opacity="1"/></g><text x="218.5" y="128.25" font-size="19" fill="#258375" text-anchor="middle" font-weight="400" opacity="1">★</text><text x="20" y="164" font-size="16" fill="#52687b" text-anchor="start" font-weight="400" opacity="1">含隐藏成功门</text><text x="20" y="196" font-size="16" fill="#258375" text-anchor="start" font-weight="400" opacity="1">★ 只有世界知道</text><rect x="198" y="267" width="44" height="44" rx="0" fill="#f5f8fb" stroke="#c8d6e0" stroke-width="1.5" opacity="1"/><rect x="244" y="267" width="44" height="44" rx="0" fill="#f5f8fb" stroke="#c8d6e0" stroke-width="1.5" opacity="1"/><rect x="290" y="267" width="44" height="44" rx="0" fill="#f5f8fb" stroke="#c8d6e0" stroke-width="1.5" opacity="1"/><circle cx="266" cy="289" r="9" fill="#146ca1" stroke="none" stroke-width="2" opacity="1"/><text x="20" y="325" font-size="17" fill="#52687b" text-anchor="start" font-weight="400" opacity="1">只见当前岔口</text><g data-pattern="gridworld"><rect x="174" y="422" width="16" height="16" rx="0" fill="#ffffff" stroke="#c8d6e0" stroke-width="1.5" opacity="1"/><rect x="179" y="427" width="6" height="6" rx="0" fill="none" stroke="#19354e" stroke-width="2" opacity="1"/><rect x="190" y="422" width="16" height="16" rx="0" fill="#ffffff" stroke="#c8d6e0" stroke-width="1.5" opacity="1"/><rect x="206" y="422" width="16" height="16" rx="0" fill="#ffffff" stroke="#c8d6e0" stroke-width="1.5" opacity="1"/><rect x="211" y="427" width="6" height="6" rx="0" fill="none" stroke="#19354e" stroke-width="2" opacity="1"/><rect x="174" y="438" width="16" height="16" rx="0" fill="#19354e" stroke="#c8d6e0" stroke-width="1.5" opacity="1"/><rect x="190" y="438" width="16" height="16" rx="0" fill="#ffffff" stroke="#c8d6e0" stroke-width="1.5" opacity="1"/><rect x="206" y="438" width="16" height="16" rx="0" fill="#19354e" stroke="#c8d6e0" stroke-width="1.5" opacity="1"/><rect x="174" y="454" width="16" height="16" rx="0" fill="#19354e" stroke="#c8d6e0" stroke-width="1.5" opacity="1"/><rect x="190" y="454" width="16" height="16" rx="0" fill="#ffffff" stroke="#c8d6e0" stroke-width="1.5" opacity="1"/><rect x="206" y="454" width="16" height="16" rx="0" fill="#19354e" stroke="#c8d6e0" stroke-width="1.5" opacity="1"/></g><path d="M202.8 457.52L194.864 457.52" fill="none" stroke="#146ca1" stroke-width="1.5" stroke-linecap="round" opacity="1"/><path data-arrow-mode="actual" d="M193.2 457.52L195.76 456.24L195.76 458.8Z" fill="#146ca1"/><circle cx="198" cy="465.52" r="2.88" fill="#146ca1" stroke="none" stroke-width="2" opacity="1"/><path d="M220 477L226.4 477" fill="none" stroke="#146ca1" stroke-width="1.5" stroke-linecap="round" opacity="1"/><path data-arrow-mode="actual" d="M229 477L225 479L225 475Z" fill="#146ca1"/><g data-pattern="gridworld"><rect x="229" y="422" width="16" height="16" rx="0" fill="#ffffff" stroke="#c8d6e0" stroke-width="1.5" opacity="1"/><rect x="234" y="427" width="6" height="6" rx="0" fill="none" stroke="#19354e" stroke-width="2" opacity="1"/><rect x="245" y="422" width="16" height="16" rx="0" fill="#ffffff" stroke="#c8d6e0" stroke-width="1.5" opacity="1"/><rect x="261" y="422" width="16" height="16" rx="0" fill="#ffffff" stroke="#c8d6e0" stroke-width="1.5" opacity="1"/><rect x="266" y="427" width="6" height="6" rx="0" fill="none" stroke="#19354e" stroke-width="2" opacity="1"/><rect x="229" y="438" width="16" height="16" rx="0" fill="#19354e" stroke="#c8d6e0" stroke-width="1.5" opacity="1"/><rect x="245" y="438" width="16" height="16" rx="0" fill="#ffffff" stroke="#c8d6e0" stroke-width="1.5" opacity="1"/><rect x="261" y="438" width="16" height="16" rx="0" fill="#19354e" stroke="#c8d6e0" stroke-width="1.5" opacity="1"/><rect x="229" y="454" width="16" height="16" rx="0" fill="#19354e" stroke="#c8d6e0" stroke-width="1.5" opacity="1"/><rect x="245" y="454" width="16" height="16" rx="0" fill="#ffffff" stroke="#c8d6e0" stroke-width="1.5" opacity="1"/><rect x="261" y="454" width="16" height="16" rx="0" fill="#19354e" stroke="#c8d6e0" stroke-width="1.5" opacity="1"/><circle cx="253" cy="446" r="3.84" fill="#146ca1" stroke="#ffffff" stroke-width="2.5" opacity="1"/></g><path d="M275 477L281.4 477" fill="none" stroke="#146ca1" stroke-width="1.5" stroke-linecap="round" opacity="1"/><path data-arrow-mode="actual" d="M284 477L280 479L280 475Z" fill="#146ca1"/><g data-pattern="gridworld"><rect x="284" y="422" width="16" height="16" rx="0" fill="#ffffff" stroke="#c8d6e0" stroke-width="1.5" opacity="1"/><rect x="289" y="427" width="6" height="6" rx="0" fill="none" stroke="#19354e" stroke-width="2" opacity="1"/><rect x="300" y="422" width="16" height="16" rx="0" fill="#ffffff" stroke="#c8d6e0" stroke-width="1.5" opacity="1"/><rect x="316" y="422" width="16" height="16" rx="0" fill="#ffffff" stroke="#c8d6e0" stroke-width="1.5" opacity="1"/><rect x="321" y="427" width="6" height="6" rx="0" fill="none" stroke="#19354e" stroke-width="2" opacity="1"/><rect x="284" y="438" width="16" height="16" rx="0" fill="#19354e" stroke="#c8d6e0" stroke-width="1.5" opacity="1"/><rect x="300" y="438" width="16" height="16" rx="0" fill="#ffffff" stroke="#c8d6e0" stroke-width="1.5" opacity="1"/><rect x="316" y="438" width="16" height="16" rx="0" fill="#19354e" stroke="#c8d6e0" stroke-width="1.5" opacity="1"/><rect x="284" y="454" width="16" height="16" rx="0" fill="#19354e" stroke="#c8d6e0" stroke-width="1.5" opacity="1"/><rect x="300" y="454" width="16" height="16" rx="0" fill="#ffffff" stroke="#c8d6e0" stroke-width="1.5" opacity="1"/><rect x="316" y="454" width="16" height="16" rx="0" fill="#19354e" stroke="#c8d6e0" stroke-width="1.5" opacity="1"/><circle cx="308" cy="430" r="3.84" fill="#146ca1" stroke="#ffffff" stroke-width="2.5" opacity="1"/></g><text x="20" y="483" font-size="17" fill="#52687b" text-anchor="start" font-weight="400" opacity="1">过去的观察序列</text><rect x="189" y="568" width="26" height="15" rx="2" fill="#146ca1" stroke="none" stroke-width="1.5" opacity="1"/><rect x="217" y="568" width="26" height="15" rx="2" fill="#146ca1" stroke="none" stroke-width="1.5" opacity="1"/><rect x="245" y="568" width="26" height="15" rx="2" fill="#146ca1" stroke="none" stroke-width="1.5" opacity="1"/><rect x="273" y="568" width="26" height="15" rx="2" fill="#146ca1" stroke="none" stroke-width="1.5" opacity="1"/><rect x="301" y="568" width="26" height="15" rx="2" fill="#b65a28" stroke="none" stroke-width="1.5" opacity="1"/><text x="189" y="614" font-size="18" fill="#146ca1" text-anchor="start" font-weight="400" opacity="1">P(L)=0.8</text><text x="20" y="649" font-size="17" fill="#52687b" text-anchor="start" font-weight="400" opacity="1">已压缩的历史</text><text x="191" y="741" font-size="20" fill="#258375" text-anchor="middle" font-weight="400" opacity="1">0.8</text><text x="191" y="774" font-size="16" fill="#52687b" text-anchor="middle" font-weight="400" opacity="1">左成功</text><text x="252" y="741" font-size="20" fill="#258375" text-anchor="middle" font-weight="400" opacity="1">0.2</text><text x="252" y="774" font-size="16" fill="#52687b" text-anchor="middle" font-weight="400" opacity="1">右成功</text><text x="313" y="741" font-size="20" fill="#b65a28" text-anchor="middle" font-weight="400" opacity="1">1</text><text x="313" y="774" font-size="16" fill="#52687b" text-anchor="middle" font-weight="400" opacity="1">步数</text><text x="20" y="808" font-size="17" fill="#52687b" text-anchor="start" font-weight="400" opacity="1">由世界和预测问题决定</text><rect x="198" y="866" width="124" height="45" rx="6" fill="#f5f8fb" stroke="#c8d6e0" stroke-width="1.5" opacity="1"/><text x="260" y="896" font-size="21" fill="#258375" text-anchor="middle" font-weight="400" opacity="1">0 → 0.5</text><text x="20" y="940" font-size="17" fill="#52687b" text-anchor="start" font-weight="400" opacity="1">学习改变估计</text><circle cx="220" cy="1019" r="21" fill="#f5f8fb" stroke="#19354e" stroke-width="2" opacity="1"/><text x="220" y="1026" font-size="26" fill="#19354e" text-anchor="middle" font-weight="400" opacity="1">↻</text><text x="255" y="1026" font-size="18" fill="#19354e" text-anchor="start" font-weight="400" opacity="1">0 → −1</text><text x="20" y="1069" font-size="17" fill="#52687b" text-anchor="start" font-weight="400" opacity="1">动量参与下一次更新</text><text x="20" y="1113" font-size="16" fill="#52687b" text-anchor="start" font-weight="400" opacity="1">示例：target=1，α=0.5，μ=0.9</text></g></svg>
