<svg xmlns="http://www.w3.org/2000/svg" width="360" height="1310" viewBox="0 0 360 1310" role="img" aria-labelledby="crl-qpams3-title crl-qpams3-desc" data-crl-visual="v1" data-evidence-kind="exact"><title id="crl-qpams3-title">GAE 有两条不同的接续路径</title><desc id="crl-qpams3-desc">给定当前奖励一、旧价值0.5、后继旧价值一、折扣0.9和lambda0.8。真正终止不自举也不接下一行，优势0.5；外部时间截断后重置保留最后观测的自举但不接新轨迹，优势1.4；同一轨迹下一优势为一时接续，优势2.12。蓝箭头为价值自举，橙箭头为样本递推，红双线切断相应路径。这是不同边界语义的给定数值对照。</desc><rect width="360" height="1310" fill="#ffffff"/><g font-family="system-ui,-apple-system,&quot;PingFang SC&quot;,&quot;Noto Sans CJK SC&quot;,sans-serif"><text x="20" y="38" font-size="20" fill="#19354e" text-anchor="start" font-weight="400" opacity="1">GAE 有两条不同的接续路径</text><text x="20" y="76" font-size="17" fill="#52687b" text-anchor="start" font-weight="400" opacity="1">R = 1 · V = 0.5 · V′ = 1</text><text x="20" y="104" font-size="17" fill="#52687b" text-anchor="start" font-weight="400" opacity="1">γ = 0.9 · λ = 0.8</text><rect x="20" y="137" width="320" height="314" rx="8" fill="#f5f8fb" stroke="none" stroke-width="1.5" opacity="1"/><text x="34" y="165" font-size="19" fill="#19354e" text-anchor="start" font-weight="400" opacity="1">任务真正终止</text><circle cx="63" cy="211" r="13" fill="#146ca1" stroke="none" stroke-width="2" opacity="1"/><path d="M81 211L271.5 211" fill="none" stroke="#146ca1" stroke-width="2.5" stroke-linecap="round" opacity="1"/><path data-arrow-mode="actual" d="M278 211L268 216L268 206Z" fill="#146ca1"/><circle cx="297" cy="211" r="13" fill="#52687b" stroke="none" stroke-width="2" opacity="1"/><circle cx="297" cy="211" r="18" fill="none" stroke="#52687b" stroke-width="2" opacity="1"/><text x="180" y="199" font-size="18" fill="#258375" text-anchor="middle" font-weight="400" opacity="1">+1</text><text x="63" y="248" font-size="17" fill="#52687b" text-anchor="middle" font-weight="400" opacity="1">V=.5</text><text x="297" y="248" font-size="17" fill="#52687b" text-anchor="middle" font-weight="400" opacity="1">终止</text><path d="M297 285L69.5 285" fill="none" stroke="#146ca1" stroke-width="3" stroke-linecap="round" opacity="1" stroke-dasharray="4 4"/><path data-arrow-mode="actual" d="M63 285L73 280L73 290Z" fill="#146ca1"/><path d="M175 276L175 294" fill="none" stroke="#b54142" stroke-width="3" stroke-linecap="round" opacity="1"/><path d="M184 276L184 294" fill="none" stroke="#b54142" stroke-width="3" stroke-linecap="round" opacity="1"/><text x="34" y="315" font-size="17" fill="#146ca1" text-anchor="start" font-weight="400" opacity="1">bootstrap：b=0</text><path d="M297 346L69.5 346" fill="none" stroke="#b65a28" stroke-width="3" stroke-linecap="round" opacity="1" stroke-dasharray="4 4"/><path data-arrow-mode="actual" d="M63 346L73 341L73 351Z" fill="#b65a28"/><path d="M175 337L175 355" fill="none" stroke="#b54142" stroke-width="3" stroke-linecap="round" opacity="1"/><path d="M184 337L184 355" fill="none" stroke="#b54142" stroke-width="3" stroke-linecap="round" opacity="1"/><text x="34" y="376" font-size="17" fill="#b65a28" text-anchor="start" font-weight="400" opacity="1">接下一行：c=0</text><text x="34" y="419" font-size="24" fill="#19354e" text-anchor="start" font-weight="400" opacity="1">Â = 0.5</text><text x="326" y="419" font-size="17" fill="#52687b" text-anchor="end" font-weight="400" opacity="1">δ=0.5</text><rect x="20" y="479" width="320" height="314" rx="8" fill="#f5f8fb" stroke="none" stroke-width="1.5" opacity="1"/><text x="34" y="507" font-size="19" fill="#19354e" text-anchor="start" font-weight="400" opacity="1">人工截断后重置</text><circle cx="63" cy="553" r="13" fill="#146ca1" stroke="none" stroke-width="2" opacity="1"/><path d="M81 553L271.5 553" fill="none" stroke="#146ca1" stroke-width="2.5" stroke-linecap="round" opacity="1"/><path data-arrow-mode="actual" d="M278 553L268 558L268 548Z" fill="#146ca1"/><circle cx="297" cy="553" r="13" fill="#146ca1" stroke="none" stroke-width="2" opacity="1"/><text x="180" y="541" font-size="18" fill="#258375" text-anchor="middle" font-weight="400" opacity="1">+1</text><text x="63" y="590" font-size="17" fill="#52687b" text-anchor="middle" font-weight="400" opacity="1">V=.5</text><text x="297" y="590" font-size="17" fill="#52687b" text-anchor="middle" font-weight="400" opacity="1">V′=1</text><path d="M297 627L69.5 627" fill="none" stroke="#146ca1" stroke-width="3" stroke-linecap="round" opacity="1"/><path data-arrow-mode="actual" d="M63 627L73 622L73 632Z" fill="#146ca1"/><text x="34" y="657" font-size="17" fill="#146ca1" text-anchor="start" font-weight="400" opacity="1">bootstrap：b=1</text><path d="M297 688L69.5 688" fill="none" stroke="#b65a28" stroke-width="3" stroke-linecap="round" opacity="1" stroke-dasharray="4 4"/><path data-arrow-mode="actual" d="M63 688L73 683L73 693Z" fill="#b65a28"/><path d="M175 679L175 697" fill="none" stroke="#b54142" stroke-width="3" stroke-linecap="round" opacity="1"/><path d="M184 679L184 697" fill="none" stroke="#b54142" stroke-width="3" stroke-linecap="round" opacity="1"/><text x="34" y="718" font-size="17" fill="#b65a28" text-anchor="start" font-weight="400" opacity="1">接下一行：c=0</text><text x="34" y="761" font-size="24" fill="#19354e" text-anchor="start" font-weight="400" opacity="1">Â = 1.4</text><text x="326" y="761" font-size="17" fill="#52687b" text-anchor="end" font-weight="400" opacity="1">δ=1.4</text><rect x="20" y="821" width="320" height="314" rx="8" fill="#f5f8fb" stroke="none" stroke-width="1.5" opacity="1"/><text x="34" y="849" font-size="19" fill="#19354e" text-anchor="start" font-weight="400" opacity="1">下一行仍是同一轨迹</text><circle cx="63" cy="895" r="13" fill="#146ca1" stroke="none" stroke-width="2" opacity="1"/><path d="M81 895L271.5 895" fill="none" stroke="#146ca1" stroke-width="2.5" stroke-linecap="round" opacity="1"/><path data-arrow-mode="actual" d="M278 895L268 900L268 890Z" fill="#146ca1"/><circle cx="297" cy="895" r="13" fill="#146ca1" stroke="none" stroke-width="2" opacity="1"/><text x="180" y="883" font-size="18" fill="#258375" text-anchor="middle" font-weight="400" opacity="1">+1</text><text x="63" y="932" font-size="17" fill="#52687b" text-anchor="middle" font-weight="400" opacity="1">V=.5</text><text x="297" y="932" font-size="17" fill="#52687b" text-anchor="middle" font-weight="400" opacity="1">V′=1</text><path d="M297 969L69.5 969" fill="none" stroke="#146ca1" stroke-width="3" stroke-linecap="round" opacity="1"/><path data-arrow-mode="actual" d="M63 969L73 964L73 974Z" fill="#146ca1"/><text x="34" y="999" font-size="17" fill="#146ca1" text-anchor="start" font-weight="400" opacity="1">bootstrap：b=1</text><path d="M297 1030L69.5 1030" fill="none" stroke="#b65a28" stroke-width="3" stroke-linecap="round" opacity="1"/><path data-arrow-mode="actual" d="M63 1030L73 1025L73 1035Z" fill="#b65a28"/><text x="34" y="1060" font-size="17" fill="#b65a28" text-anchor="start" font-weight="400" opacity="1">接下一行：c=1</text><text x="34" y="1103" font-size="24" fill="#19354e" text-anchor="start" font-weight="400" opacity="1">Â = 2.12</text><text x="326" y="1103" font-size="17" fill="#52687b" text-anchor="end" font-weight="400" opacity="1">δ=1.4</text><text x="20" y="1203" font-size="17" fill="#146ca1" text-anchor="start" font-weight="400" opacity="1">蓝箭头：使用最后观测的 V′。</text><text x="20" y="1234" font-size="16" fill="#b65a28" text-anchor="start" font-weight="400" opacity="1">橙箭头：接入同轨迹的下一优势 1。</text><text x="20" y="1275" font-size="15" fill="#52687b" text-anchor="start" font-weight="400" opacity="1">普通 batch 尾：保留 V′，后向 carry 从 0 起。</text></g></svg>
