<svg xmlns="http://www.w3.org/2000/svg" width="720" height="894" viewBox="0 0 720 894" role="img" aria-labelledby="crl-arkx2g-title crl-arkx2g-desc" data-crl-visual="v1" data-evidence-kind="exact"><title id="crl-arkx2g-title">后继被更新，父节点的目标随之移动</title><desc id="crl-arkx2g-desc">原创同一接单任务的独立两阶段计算。结算状态v的真实终止回报是0/4各半；另建同结构后继网络，fixed结算输入=-1初始输出2四次，floating结算输入=1初始输出1,1,3,3。对v的终止标签0,0,4,4做一次步长.5总体pinball写入，预测变为约.856,.906,3.094,3.144。父目标y=.5+.5z_v从1,1,2,2变为约.928,.953,2.047,2.072。CDF的蓝虚线是旧目标，橙实线是新目标，青短虚线是父真实分布，均使用同坐标。父当前预测1,1,2,2保持不动：目标对真分布W1由.5降至约.440，父原始pinball损失却从.125升至约.155。若仍读取旧target副本目标就不变；同步副本才产生新标签。本图没有对父目标路径反传，也没有继续父训练。</desc><rect width="720" height="894" fill="#ffffff"/><g font-family="system-ui,-apple-system,&quot;PingFang SC&quot;,&quot;Noto Sans CJK SC&quot;,sans-serif"><text x="28" y="42" font-size="26" fill="#19354e" text-anchor="start" font-weight="400" opacity="1">后继被更新，父节点的目标随之移动</text><text x="28" y="82" font-size="21" fill="#19354e" text-anchor="start" font-weight="400" opacity="1">同一接单：结算 v 的网络写入一次</text><text x="28" y="119" font-size="19" fill="#7854a2" text-anchor="start" font-weight="400" opacity="1">父预测不写；新标签来自后继新副本</text><path d="M75 190L75 390" fill="none" stroke="#c8d6e0" stroke-width="1" stroke-linecap="round" opacity="1"/><path d="M75 390L75 395" fill="none" stroke="#19354e" stroke-width="2" stroke-linecap="round" opacity="1"/><text x="75" y="416" font-size="16" fill="#52687b" text-anchor="middle" font-weight="400" opacity="1">0</text><path d="M170 190L170 390" fill="none" stroke="#c8d6e0" stroke-width="1" stroke-linecap="round" opacity="1"/><path d="M170 390L170 395" fill="none" stroke="#19354e" stroke-width="2" stroke-linecap="round" opacity="1"/><text x="170" y="416" font-size="16" fill="#52687b" text-anchor="middle" font-weight="400" opacity="1">0.5</text><path d="M360 190L360 390" fill="none" stroke="#c8d6e0" stroke-width="1" stroke-linecap="round" opacity="1"/><path d="M360 390L360 395" fill="none" stroke="#19354e" stroke-width="2" stroke-linecap="round" opacity="1"/><text x="360" y="416" font-size="16" fill="#52687b" text-anchor="middle" font-weight="400" opacity="1">1.5</text><path d="M550 190L550 390" fill="none" stroke="#c8d6e0" stroke-width="1" stroke-linecap="round" opacity="1"/><path d="M550 390L550 395" fill="none" stroke="#19354e" stroke-width="2" stroke-linecap="round" opacity="1"/><text x="550" y="416" font-size="16" fill="#52687b" text-anchor="middle" font-weight="400" opacity="1">2.5</text><path d="M645 190L645 390" fill="none" stroke="#c8d6e0" stroke-width="1" stroke-linecap="round" opacity="1"/><path d="M645 390L645 395" fill="none" stroke="#19354e" stroke-width="2" stroke-linecap="round" opacity="1"/><text x="645" y="416" font-size="16" fill="#52687b" text-anchor="middle" font-weight="400" opacity="1">3</text><path d="M75 390L645 390" fill="none" stroke="#c8d6e0" stroke-width="1" stroke-linecap="round" opacity="1"/><path d="M70 390L75 390" fill="none" stroke="#19354e" stroke-width="2" stroke-linecap="round" opacity="1"/><text x="65" y="395" font-size="16" fill="#52687b" text-anchor="end" font-weight="400" opacity="1">0</text><path d="M75 290L645 290" fill="none" stroke="#c8d6e0" stroke-width="1" stroke-linecap="round" opacity="1"/><path d="M70 290L75 290" fill="none" stroke="#19354e" stroke-width="2" stroke-linecap="round" opacity="1"/><text x="65" y="295" font-size="16" fill="#52687b" text-anchor="end" font-weight="400" opacity="1">0.5</text><path d="M75 190L645 190" fill="none" stroke="#c8d6e0" stroke-width="1" stroke-linecap="round" opacity="1"/><path d="M70 190L75 190" fill="none" stroke="#19354e" stroke-width="2" stroke-linecap="round" opacity="1"/><text x="65" y="195" font-size="16" fill="#52687b" text-anchor="end" font-weight="400" opacity="1">1</text><path d="M75 190L75 390" fill="none" stroke="#19354e" stroke-width="2" stroke-linecap="round" opacity="1"/><path d="M75 390L645 390" fill="none" stroke="#19354e" stroke-width="2" stroke-linecap="round" opacity="1"/><text x="645" y="444" font-size="18" fill="#19354e" text-anchor="end" font-weight="400" opacity="1">父回报 y=.5+.5z_v</text><text x="75" y="172" font-size="18" fill="#19354e" text-anchor="start" font-weight="400" opacity="1">目标 CDF</text><path d="M75 390L170 390" fill="none" stroke="#258375" stroke-width="2.5" stroke-linecap="round" opacity="1" stroke-dasharray="4 4"/><path d="M170 390L170 290" fill="none" stroke="#258375" stroke-width="2.5" stroke-linecap="round" opacity="1" stroke-dasharray="4 4"/><path d="M170 290L550 290" fill="none" stroke="#258375" stroke-width="2.5" stroke-linecap="round" opacity="1" stroke-dasharray="4 4"/><path d="M550 290L550 190" fill="none" stroke="#258375" stroke-width="2.5" stroke-linecap="round" opacity="1" stroke-dasharray="4 4"/><path d="M550 190L645 190" fill="none" stroke="#258375" stroke-width="2.5" stroke-linecap="round" opacity="1" stroke-dasharray="4 4"/><path d="M75 390L265 390" fill="none" stroke="#146ca1" stroke-width="2.5" stroke-linecap="round" opacity="1" stroke-dasharray="7 5"/><path d="M265 390L265 290" fill="none" stroke="#146ca1" stroke-width="2.5" stroke-linecap="round" opacity="1" stroke-dasharray="7 5"/><path d="M265 290L455 290" fill="none" stroke="#146ca1" stroke-width="2.5" stroke-linecap="round" opacity="1" stroke-dasharray="7 5"/><path d="M455 290L455 190" fill="none" stroke="#146ca1" stroke-width="2.5" stroke-linecap="round" opacity="1" stroke-dasharray="7 5"/><path d="M455 190L645 190" fill="none" stroke="#146ca1" stroke-width="2.5" stroke-linecap="round" opacity="1" stroke-dasharray="7 5"/><path d="M75 390L251.2886 390" fill="none" stroke="#b65a28" stroke-width="2.5" stroke-linecap="round" opacity="1"/><path d="M251.2886 390L251.2886 340" fill="none" stroke="#b65a28" stroke-width="2.5" stroke-linecap="round" opacity="1"/><path d="M251.2886 340L256.0971 340" fill="none" stroke="#b65a28" stroke-width="2.5" stroke-linecap="round" opacity="1"/><path d="M256.0971 340L256.0971 290" fill="none" stroke="#b65a28" stroke-width="2.5" stroke-linecap="round" opacity="1"/><path d="M256.0971 290L463.9029 290" fill="none" stroke="#b65a28" stroke-width="2.5" stroke-linecap="round" opacity="1"/><path d="M463.9029 290L463.9029 240" fill="none" stroke="#b65a28" stroke-width="2.5" stroke-linecap="round" opacity="1"/><path d="M463.9029 240L468.7114 240" fill="none" stroke="#b65a28" stroke-width="2.5" stroke-linecap="round" opacity="1"/><path d="M468.7114 240L468.7114 190" fill="none" stroke="#b65a28" stroke-width="2.5" stroke-linecap="round" opacity="1"/><path d="M468.7114 190L645 190" fill="none" stroke="#b65a28" stroke-width="2.5" stroke-linecap="round" opacity="1"/><path d="M28 483L56 483" fill="none" stroke="#258375" stroke-width="3" stroke-linecap="round" opacity="1" stroke-dasharray="4 4"/><text x="68" y="488" font-size="20" fill="#19354e" text-anchor="start" font-weight="400" opacity="1">真父回报：.5 / 2.5 各半</text><path d="M28 513L56 513" fill="none" stroke="#146ca1" stroke-width="3" stroke-linecap="round" opacity="1" stroke-dasharray="7 5"/><text x="68" y="518" font-size="20" fill="#19354e" text-anchor="start" font-weight="400" opacity="1">旧目标：1,1,2,2</text><path d="M28 543L56 543" fill="none" stroke="#b65a28" stroke-width="3" stroke-linecap="round" opacity="1"/><text x="68" y="548" font-size="20" fill="#19354e" text-anchor="start" font-weight="400" opacity="1">新目标：.928,.953,2.047,2.072</text><text x="28" y="580" font-size="20" fill="#7854a2" text-anchor="start" font-weight="400" opacity="1">父预测保持 1,1,2,2</text><path d="M75 640L645 640" fill="none" stroke="#52687b" stroke-width="1.5" stroke-linecap="round" opacity="1"/><path d="M75 640L75 645" fill="none" stroke="#52687b" stroke-width="1" stroke-linecap="round" opacity="1"/><text x="75" y="668" font-size="16" fill="#52687b" text-anchor="middle" font-weight="400" opacity="1">0</text><path d="M170 640L170 645" fill="none" stroke="#52687b" stroke-width="1" stroke-linecap="round" opacity="1"/><text x="170" y="668" font-size="16" fill="#52687b" text-anchor="middle" font-weight="400" opacity="1">0.5</text><path d="M360 640L360 645" fill="none" stroke="#52687b" stroke-width="1" stroke-linecap="round" opacity="1"/><text x="360" y="668" font-size="16" fill="#52687b" text-anchor="middle" font-weight="400" opacity="1">1.5</text><path d="M550 640L550 645" fill="none" stroke="#52687b" stroke-width="1" stroke-linecap="round" opacity="1"/><text x="550" y="668" font-size="16" fill="#52687b" text-anchor="middle" font-weight="400" opacity="1">2.5</text><path d="M645 640L645 645" fill="none" stroke="#52687b" stroke-width="1" stroke-linecap="round" opacity="1"/><text x="645" y="668" font-size="16" fill="#52687b" text-anchor="middle" font-weight="400" opacity="1">3</text><path d="M265 640L265 628" fill="none" stroke="#7854a2" stroke-width="2" stroke-linecap="round" opacity="1"/><circle cx="265" cy="628" r="5" fill="#7854a2" stroke="#ffffff" stroke-width="1" opacity="1"/><path d="M265 640L265 618" fill="none" stroke="#7854a2" stroke-width="2" stroke-linecap="round" opacity="1"/><circle cx="265" cy="618" r="5" fill="#7854a2" stroke="#ffffff" stroke-width="1" opacity="1"/><path d="M455 640L455 608" fill="none" stroke="#7854a2" stroke-width="2" stroke-linecap="round" opacity="1"/><circle cx="455" cy="608" r="5" fill="#7854a2" stroke="#ffffff" stroke-width="1" opacity="1"/><path d="M455 640L455 598" fill="none" stroke="#7854a2" stroke-width="2" stroke-linecap="round" opacity="1"/><circle cx="455" cy="598" r="5" fill="#7854a2" stroke="#ffffff" stroke-width="1" opacity="1"/><text x="28" y="720" font-size="20" fill="#19354e" text-anchor="start" font-weight="400" opacity="1">同一父预测，对不同版本的目标</text><text x="28" y="767" font-size="22" fill="#b54142" text-anchor="start" font-weight="400" opacity="1">损失 .125 → .155</text><text x="28" y="810" font-size="22" fill="#258375" text-anchor="start" font-weight="400" opacity="1">目标 W₁ .5 → .440</text><text x="28" y="854" font-size="18" fill="#52687b" text-anchor="start" font-weight="400" opacity="1">冻结旧副本时，旧目标保持不动</text></g></svg>
