<svg xmlns="http://www.w3.org/2000/svg" width="360" height="572" viewBox="0 0 360 572" role="img" aria-labelledby="crl-tkdjkf-title crl-tkdjkf-desc" data-crl-visual="v1" data-evidence-kind="measured"><title id="crl-tkdjkf-title">非线性 TD：冻结 50 步目标副本 的已记录对照结果</title><desc id="crl-tkdjkf-desc">二状态真实价值 RMSE，横轴为真实环境步。原始记录的均值及一个样本标准差；每条曲线保留全部点，同图使用相同坐标。</desc><rect width="360" height="572" fill="#ffffff"/><g font-family="system-ui,-apple-system,&quot;PingFang SC&quot;,&quot;Noto Sans CJK SC&quot;,sans-serif"><text x="20" y="35" font-size="18" fill="#19354e" text-anchor="start" font-weight="400" opacity="1">非线性 TD：冻结 50 步目标副本：对</text><text x="20" y="59" font-size="18" fill="#19354e" text-anchor="start" font-weight="400" opacity="1">照结果</text><text x="20" y="88" font-size="18" fill="#52687b" text-anchor="start" font-weight="400" opacity="1">二状态真实价值 RMSE（价值）</text><path d="M22 114L51 114" fill="none" stroke="#7854a2" stroke-width="3" stroke-linecap="round" opacity="1" stroke-dasharray="8 5"/><text x="61" y="120" font-size="18" fill="#19354e" text-anchor="start" font-weight="400" opacity="1">非线性 TD：冻结 50 步目标副</text><text x="61" y="144" font-size="18" fill="#19354e" text-anchor="start" font-weight="400" opacity="1">本</text><path d="M22 166L51 166" fill="none" stroke="#146ca1" stroke-width="3" stroke-linecap="round" opacity="1"/><text x="61" y="172" font-size="18" fill="#19354e" text-anchor="start" font-weight="400" opacity="1">非线性 TD：即时自举目标</text><text x="20" y="203" font-size="16" fill="#52687b" text-anchor="start" font-weight="400" opacity="1">均值 ± 1 个样本标准差</text><path d="M64 467L336 467" fill="none" stroke="#c8d6e0" stroke-width="1" stroke-linecap="round" opacity="1"/><text x="55" y="472" font-size="16" fill="#52687b" text-anchor="end" font-weight="400" opacity="1">0</text><path d="M64 407L336 407" fill="none" stroke="#c8d6e0" stroke-width="1" stroke-linecap="round" opacity="1"/><text x="55" y="412" font-size="16" fill="#52687b" text-anchor="end" font-weight="400" opacity="1">0.677</text><path d="M64 347L336 347" fill="none" stroke="#c8d6e0" stroke-width="1" stroke-linecap="round" opacity="1"/><text x="55" y="352" font-size="16" fill="#52687b" text-anchor="end" font-weight="400" opacity="1">1.35</text><path d="M64 287L336 287" fill="none" stroke="#c8d6e0" stroke-width="1" stroke-linecap="round" opacity="1"/><text x="55" y="292" font-size="16" fill="#52687b" text-anchor="end" font-weight="400" opacity="1">2.03</text><path d="M64 227L336 227" fill="none" stroke="#c8d6e0" stroke-width="1" stroke-linecap="round" opacity="1"/><text x="55" y="232" font-size="16" fill="#52687b" text-anchor="end" font-weight="400" opacity="1">2.71</text><path d="M64 467L64 472" fill="none" stroke="#19354e" stroke-width="1" stroke-linecap="round" opacity="1"/><text x="64" y="492" font-size="16" fill="#52687b" text-anchor="middle" font-weight="400" opacity="1">0</text><path d="M200 467L200 472" fill="none" stroke="#19354e" stroke-width="1" stroke-linecap="round" opacity="1"/><text x="200" y="492" font-size="16" fill="#52687b" text-anchor="middle" font-weight="400" opacity="1">600</text><path d="M336 467L336 472" fill="none" stroke="#19354e" stroke-width="1" stroke-linecap="round" opacity="1"/><text x="336" y="492" font-size="16" fill="#52687b" text-anchor="middle" font-weight="400" opacity="1">1200</text><path data-series-band="lagged_nonlinear_td" d="M64.000 244.778L75.333 281.657L86.667 312.777L98.000 339.082L109.333 361.344L120.667 380.058L132.000 395.657L143.333 408.570L154.667 419.206L166.000 427.941L177.333 435.098L188.667 440.955L200.000 445.743L211.333 449.655L222.667 452.849L234.000 455.457L245.333 457.585L256.667 459.321L268.000 460.737L279.333 461.893L290.667 462.835L302.000 463.604L313.333 464.231L324.667 464.742L336.000 465.159L336.000 465.185L324.667 464.774L313.333 464.269L302.000 463.650L290.667 462.891L279.333 461.960L268.000 460.818L256.667 459.417L245.333 457.700L234.000 455.594L222.667 453.013L211.333 449.850L200.000 445.975L188.667 441.228L177.333 435.418L166.000 428.313L154.667 419.633L143.333 409.049L132.000 396.180L120.667 380.600L109.333 361.861L98.000 339.519L86.667 313.096L75.333 281.881L64.000 244.879Z" fill="#7854a2" opacity="0.12"/><path data-series-band="online_nonlinear_td" d="M64.000 244.778L75.333 308.197L86.667 357.699L98.000 395.216L109.333 421.755L120.667 439.150L132.000 450.043L143.333 456.724L154.667 460.786L166.000 463.246L177.333 464.734L188.667 465.632L200.000 466.175L211.333 466.502L222.667 466.700L234.000 466.819L245.333 466.891L256.667 466.934L268.000 466.960L279.333 466.976L290.667 466.986L302.000 466.991L313.333 466.995L324.667 466.997L336.000 466.998L336.000 466.998L324.667 466.997L313.333 466.995L302.000 466.992L290.667 466.987L279.333 466.979L268.000 466.965L256.667 466.941L245.333 466.902L234.000 466.837L222.667 466.729L211.333 466.548L200.000 466.247L188.667 465.745L177.333 464.911L166.000 463.521L154.667 461.211L143.333 457.374L132.000 451.020L120.667 440.565L109.333 423.651L98.000 397.365L86.667 359.506L75.333 309.276L64.000 244.879Z" fill="#146ca1" opacity="0.12"/><path data-series="lagged_nonlinear_td" data-points="25" d="M64.000 244.828L75.333 281.769L86.667 312.937L98.000 339.300L109.333 361.602L120.667 380.329L132.000 395.919L143.333 408.809L154.667 419.420L166.000 428.127L177.333 435.258L188.667 441.092L200.000 445.859L211.333 449.753L222.667 452.931L234.000 455.526L245.333 457.642L256.667 459.369L268.000 460.778L279.333 461.926L290.667 462.863L302.000 463.627L313.333 464.250L324.667 464.758L336.000 465.172" fill="none" stroke="#7854a2" stroke-width="2.5" stroke-dasharray="8 5"/><circle cx="336" cy="465.1719" r="3" fill="#7854a2" stroke="none" stroke-width="2" opacity="1"/><path data-series="online_nonlinear_td" data-points="25" d="M64.000 244.828L75.333 308.736L86.667 358.603L98.000 396.290L109.333 422.703L120.667 439.858L132.000 450.532L143.333 457.049L154.667 460.998L166.000 463.384L177.333 464.822L188.667 465.689L200.000 466.211L211.333 466.525L222.667 466.714L234.000 466.828L245.333 466.897L256.667 466.938L268.000 466.963L279.333 466.977L290.667 466.986L302.000 466.992L313.333 466.995L324.667 466.997L336.000 466.998" fill="none" stroke="#146ca1" stroke-width="2.5"/><circle cx="336" cy="466.9982" r="3" fill="#146ca1" stroke="none" stroke-width="2" opacity="1"/><path d="M64 227L64 467" fill="none" stroke="#19354e" stroke-width="1.5" stroke-linecap="round" opacity="1"/><path d="M64 467L336 467" fill="none" stroke="#19354e" stroke-width="1.5" stroke-linecap="round" opacity="1"/><text x="200" y="521" font-size="18" fill="#19354e" text-anchor="middle" font-weight="400" opacity="1">真实环境步</text><text x="20" y="555" font-size="16" fill="#52687b" text-anchor="start" font-weight="400" opacity="1">每点 n=5；逐点连接，未平滑</text></g></svg>
